<svg version="1.1" xmlns="http://www.w3.org/2000/svg" width="32" height="32" viewBox="0 0 32 32">
<title>location-index</title>
<path fill="#fff" d="M25.353 12.522c0 5.098-6.813 13.731-10.468 18.37l-0.272 0.341c-0.387 0.487-0.963 0.767-1.578 0.767-0.619 0-1.194-0.28-1.578-0.767l-0.272-0.341c-3.662-4.639-10.476-13.272-10.476-18.37 0-6.904 5.527-12.522 12.321-12.522 7.137 0 12.321 5.264 12.321 12.522z"/>
<path fill="#06324b" d="M18.667 13.333c0 2.946-2.388 5.333-5.333 5.333s-5.333-2.388-5.333-5.333c0-2.946 2.388-5.333 5.333-5.333s5.333 2.388 5.333 5.333z"/>
</svg>